<?xml version="1.0" encoding="UTF-8"?>
<svg version="1.1" xmlns="http://www.w3.org/2000/svg" width="180" height="180">
<path d="M0 0 C4.12190427 3.48466271 6.82823202 7.07619867 7.3125 12.5 C7.14736309 21.63207112 2.21380753 29.59674712 -4 36 C-8.72694601 39.89879996 -12.90840015 41.61927501 -19 42 C-17.61014698 38.6714802 -16.17365803 37.1687559 -13.1875 35.1875 C-8.29767333 31.68460598 -4.93606644 27.80819931 -3 22 C-2.93259135 20.43881572 -2.91485544 18.8749748 -2.9375 17.3125 C-2.94652344 16.50425781 -2.95554687 15.69601563 -2.96484375 14.86328125 C-2.97644531 14.24839844 -2.98804688 13.63351563 -3 13 C-12.99360733 11.00127853 -21.0056052 13.75397411 -29.4375 19.3125 C-34.44159302 23.05350201 -37.99102164 26.97306491 -40 33 C-40.76617736 42.19412837 -36.67518802 47.43660174 -31 54.375 C0.31279603 93.59458339 0.31279603 93.59458339 -1.1796875 116.79296875 C-2.51648068 126.46425818 -7.08399194 134.27497635 -14.67578125 140.40625 C-30.53991879 151.28451574 -49.24747673 153.75785139 -68.0625 151.4375 C-79.4882308 149.22309188 -90.51609989 142.92575242 -98 134 C-103.93117136 124.36942727 -105.96257963 116.27593278 -105 105 C-103.7613962 100.67234817 -101.30773258 97.92867703 -97.5625 95.5 C-93.94830385 93.9782332 -92.61282692 93.68624475 -89 95 C-88.67 95.99 -88.34 96.98 -88 98 C-89.7578125 98.65104167 -91.515625 99.30208333 -93.2734375 99.953125 C-95.53868139 101.3266213 -96.08726238 102.53471357 -97 105 C-98.08577519 111.60302816 -96.60775791 117.42530063 -93 123 C-85.33618548 131.95288932 -75.228335 134.53736611 -63.87890625 135.80859375 C-53.89068743 136.30146658 -44.36037822 134.72628645 -36 129 C-31.82997715 124.6265614 -30.55218764 121.53382991 -30.67236328 115.59814453 C-31.61533248 108.12044095 -37.712262 101.47652984 -42.125 95.625 C-55.29028988 77.70536845 -67.53392258 58.64404134 -65.8125 35.4765625 C-63.76913871 23.34410487 -54.70295409 14.30960094 -45.1875 7.3125 C-31.74955047 -1.71483419 -15.55242986 -6.9228745 0 0 Z " fill="#2E9FD8" transform="translate(133,14)"/>
</svg>
